<svg width="130" height="138" viewBox="0 0 130 138" fill="none" xmlns="http://www.w3.org/2000/svg">
<path d="M30.7765 59.1717C30.2333 59.3072 29.83 59.5799 29.4183 59.8351C28.9708 60.1118 28.5984 60.4614 28.2741 60.8794C27.9901 61.2489 27.6062 61.5157 27.1923 61.7011C26.4169 62.0463 25.7685 62.5658 25.1371 63.1206C24.7423 63.4664 24.3268 63.7994 23.8875 64.0821C23.5821 64.277 23.217 64.376 22.864 64.5257C22.9294 64.9182 22.6775 65.1222 22.3443 65.2498C21.656 65.5129 21.0928 65.9477 20.5562 66.4425C20.2638 66.7111 19.9086 66.902 19.4941 66.9256C19.4428 66.9307 19.393 66.9545 19.3439 66.9738C19.3129 67.4352 19.0116 67.6746 18.653 67.8718C18.0791 68.1915 17.5101 68.5236 16.9362 68.8433C16.5471 69.0584 16.1525 69.2657 15.7598 69.4755C15.3678 69.6809 14.9583 69.8394 14.6795 70.2328C14.3344 70.7212 13.8037 71.0021 13.3086 71.3168C12.7421 71.6748 12.1385 71.9801 11.6124 72.3843C10.711 73.0729 9.74618 73.6606 8.8047 74.2869C8.35349 74.586 7.91342 74.901 7.45183 75.1799C6.98242 75.4644 6.49818 75.7279 6.01171 75.9771C5.49475 76.2442 4.96109 76.4876 4.4356 76.7371C4.09643 76.9007 3.74787 76.8178 3.42835 76.6982C3.33769 76.6642 3.28111 76.4119 3.28722 76.2651C3.30484 75.8014 3.50303 75.4103 3.82715 75.0754C4.55356 74.3221 5.36385 73.671 6.20198 73.0593C6.95417 72.5091 7.74904 72.0194 8.54317 71.5341C9.45818 70.9703 10.3361 70.3539 11.1962 69.7067C11.8654 69.2 12.5707 68.7388 13.2492 68.2453C13.8854 67.7861 14.5066 67.3058 15.1435 66.8421C15.8481 66.33 16.5508 65.8152 17.271 65.3196C18.2898 64.6141 19.321 63.9316 20.3417 63.2288C21.0671 62.7294 21.7906 62.2274 22.4232 61.5967C22.7812 61.2376 23.2342 60.9688 23.6705 60.704C24.2983 60.3219 24.8579 59.8542 25.4294 59.3977C26.1254 58.8402 26.8197 58.2801 27.5202 57.7233C27.7211 57.5637 27.9368 57.4252 28.1377 57.2656C28.195 57.2246 28.2282 57.1494 28.2743 57.0926C28.2086 57.0605 28.141 56.9981 28.0763 57.0009C27.6909 57.0156 27.3087 57.0517 26.9232 57.0664C25.8988 57.1032 24.8744 57.1399 23.8488 57.1696C23.4526 57.1801 23.0896 57.0323 22.7244 56.898C22.5018 56.816 22.4611 56.6195 22.4324 56.4344C22.4047 56.2563 22.3124 56.0533 22.4705 55.8887C22.5788 55.7756 22.6871 55.6625 22.8073 55.5607C23.4011 55.0526 24.1158 54.8102 24.8494 54.6057C25.3736 54.46 25.9056 54.3364 26.4277 54.1765C26.6474 54.1102 26.8325 54.1281 27.0324 54.2225C27.1728 54.2882 27.3258 54.3884 27.3786 54.1132C27.4032 53.9927 27.5096 53.9324 27.6542 53.9595C27.8656 53.9981 28.086 54.0105 28.2993 54.0517C28.4457 54.0815 28.5428 54.0358 28.6607 53.9474C29.0982 53.6066 29.605 53.5249 30.136 53.6553C30.4775 53.7393 30.8083 53.7083 31.1255 53.6079C31.4936 53.4909 31.8635 53.4319 32.2366 53.4774C32.9223 53.5604 33.6028 53.6749 34.2825 53.7939C34.5742 53.8462 34.8276 54.2109 34.8158 54.5161C34.7955 55.0648 34.7528 55.6097 34.744 56.1581C34.7407 56.4533 34.7943 56.7513 34.8133 57.0503C34.8206 57.1717 34.8464 57.3193 34.7917 57.4139C34.5805 57.7866 34.5904 58.195 34.5435 58.6005C34.5247 58.7683 34.5082 58.9502 34.4355 59.0972C34.2019 59.577 33.9557 60.0499 33.6887 60.5101C33.6112 60.6447 33.4342 60.716 33.3125 60.8268C33.2582 60.8775 33.1845 60.9619 33.1934 61.0189C33.2764 61.5253 33.1132 61.9547 32.7671 62.2974C32.2394 62.8214 31.8733 63.4633 31.4437 64.0596C30.9486 64.7463 30.4516 65.4304 29.9665 66.1258C29.5927 66.6623 29.1502 67.1294 28.6539 67.5479C28.4429 67.7265 28.2017 67.7568 27.9821 67.6567C27.5033 67.4336 27.4709 67.4766 27.4343 66.925C27.4266 66.8197 27.4305 66.7141 27.4087 66.611C27.3199 66.2076 27.5418 65.9222 27.728 65.603C28.0482 65.0572 28.3351 64.4919 28.6175 63.9258C28.9867 63.1828 29.3343 62.4315 29.6946 61.6869C29.888 61.2834 30.1021 60.8928 30.2803 60.4843C30.4584 60.0759 30.6042 59.655 30.7824 59.1912L30.7765 59.1717Z" fill="#101214"/>
<path d="M57.1306 9.54315C56.5773 9.45774 56.0999 9.55306 55.6215 9.62882C55.1018 9.71066 54.623 9.88879 54.1622 10.1486C53.7573 10.3793 53.3 10.4766 52.8466 10.4873C51.998 10.5053 51.199 10.7331 50.402 11.0001C49.9041 11.1661 49.392 11.3122 48.8775 11.4027C48.5205 11.4641 48.1455 11.414 47.7622 11.4154C47.6705 11.8025 47.3593 11.893 47.0026 11.8817C46.2661 11.8577 45.5785 12.0405 44.8922 12.2888C44.5185 12.4233 44.1171 12.4617 43.7259 12.323C43.6766 12.3078 43.6214 12.3104 43.5687 12.3092C43.3615 12.7226 42.9909 12.8266 42.584 12.8696C41.931 12.9422 41.2778 13.028 40.6249 13.1005C40.1829 13.1482 39.7388 13.1864 39.2954 13.2278C38.8545 13.2653 38.4156 13.2529 38.0062 13.5077C37.4989 13.8243 36.9008 13.8777 36.3224 13.9762C35.6615 14.0869 34.9868 14.1346 34.3453 14.3036C33.2475 14.5894 32.1304 14.7575 31.0198 14.9704C30.488 15.0715 29.9603 15.1915 29.4267 15.2698C28.8837 15.3504 28.3353 15.4058 27.7902 15.4472C27.2102 15.4932 26.6239 15.511 26.0428 15.5375C25.6667 15.557 25.3775 15.3456 25.1292 15.1116C25.0588 15.0451 25.1043 14.7906 25.1668 14.6576C25.3626 14.2369 25.6968 13.9531 26.1253 13.7699C27.0867 13.3566 28.086 13.0701 29.0956 12.8307C30.0021 12.6147 30.9246 12.471 31.8447 12.3312C32.9067 12.1657 33.9548 11.9373 34.9984 11.6737C35.8116 11.4657 36.6405 11.3136 37.4572 11.1214C38.2215 10.9443 38.9803 10.7421 39.747 10.5612C40.595 10.3619 41.4422 10.1594 42.2981 9.98134C43.5107 9.7255 44.7256 9.49551 45.9389 9.24282C46.801 9.06334 47.6625 8.88071 48.49 8.54412C48.9591 8.35169 49.4809 8.27928 49.9857 8.20413C50.7125 8.095 51.4095 7.88046 52.1132 7.68092C52.9708 7.43646 53.8278 7.18886 54.6893 6.94684C54.9363 6.87749 55.1889 6.83327 55.4359 6.76392C55.5046 6.7483 55.5643 6.69184 55.6288 6.65737C55.5806 6.60233 55.5425 6.51861 55.4818 6.49611C55.1207 6.3604 54.7544 6.24569 54.3933 6.10998C53.4346 5.74716 52.4758 5.38434 51.5188 5.01453C51.1494 4.87082 50.872 4.59401 50.5872 4.32875C50.4138 4.16689 50.4524 3.97003 50.4976 3.78818C50.541 3.61332 50.5345 3.39041 50.7441 3.29988C50.8877 3.23753 51.0314 3.17518 51.1816 3.12783C51.9258 2.88936 52.6786 2.94262 53.4341 3.03815C53.9739 3.10684 54.5123 3.19894 55.0556 3.25364C55.2838 3.27765 55.4475 3.36582 55.5953 3.53023C55.6993 3.64517 55.8016 3.79681 55.9567 3.56355C56.0261 3.46198 56.1476 3.44757 56.2704 3.52856C56.4504 3.64603 56.6488 3.74282 56.8295 3.86343C56.9529 3.94755 57.0601 3.94298 57.2031 3.90719C57.7384 3.7624 58.2372 3.88329 58.6763 4.20915C58.9586 4.41886 59.2757 4.51838 59.607 4.54866C59.9917 4.5833 60.3556 4.67217 60.6819 4.85866C61.282 5.20073 61.865 5.56976 62.4456 5.94264C62.6943 6.1039 62.7868 6.53824 62.6576 6.81508C62.4264 7.31311 62.1761 7.79898 61.9556 8.30116C61.8383 8.57202 61.7722 8.86751 61.674 9.15053C61.6337 9.26528 61.6003 9.41145 61.5132 9.47745C61.1742 9.7393 61.0252 10.1196 60.8249 10.4753C60.7427 10.6227 60.6569 10.7841 60.533 10.8915C60.1319 11.2433 59.7217 11.5841 59.2973 11.9049C59.1738 11.999 58.983 11.9962 58.8279 12.0512C58.7581 12.077 58.6575 12.1263 58.6436 12.1822C58.5241 12.6812 58.2072 13.014 57.7555 13.1958C57.0661 13.4746 56.48 13.9247 55.853 14.3081C55.1305 14.7495 54.4074 15.1877 53.6909 15.641C53.1384 15.9909 52.5496 16.2502 51.93 16.4438C51.6663 16.5269 51.4321 16.4613 51.2685 16.284C50.9134 15.8929 50.8669 15.9199 51.0468 15.3973C51.0804 15.2972 51.1249 15.2013 51.1447 15.0978C51.2191 14.6916 51.5341 14.5144 51.8294 14.2921C52.3361 13.913 52.8195 13.5028 53.2991 13.0902C53.9272 12.5482 54.5386 11.9901 55.1591 11.4432C55.4936 11.1461 55.8424 10.8688 56.1648 10.5612C56.4872 10.2537 56.7846 9.92209 57.1285 9.56343L57.1306 9.54315Z" fill="white"/>
<path d="M71.379 111.774C70.8518 111.962 70.4773 112.273 70.0926 112.568C69.6745 112.887 69.3383 113.272 69.0567 113.72C68.8104 114.115 68.4546 114.418 68.0609 114.644C67.3232 115.063 66.729 115.644 66.1552 116.258C65.7964 116.641 65.4156 117.014 65.0062 117.338C64.7214 117.562 64.3678 117.696 64.0313 117.88C64.135 118.264 63.9044 118.492 63.5854 118.652C62.9262 118.981 62.4085 119.469 61.9232 120.014C61.6586 120.311 61.3239 120.535 60.9137 120.6C60.8632 120.61 60.8159 120.638 60.769 120.662C60.7835 121.125 60.5071 121.392 60.1697 121.624C59.63 121.999 59.0964 122.385 58.5567 122.76C58.1907 123.012 57.8184 123.257 57.4482 123.504C57.0783 123.747 56.6864 123.945 56.4476 124.364C56.1522 124.884 55.6516 125.216 55.1899 125.578C54.6613 125.99 54.0907 126.353 53.6069 126.807C52.7776 127.581 51.8752 128.26 50.9999 128.976C50.5803 129.318 50.1733 129.675 49.7414 129.998C49.3022 130.327 48.8462 130.637 48.3866 130.933C47.8984 131.25 47.3913 131.544 46.8929 131.844C46.5714 132.04 46.2164 131.992 45.8867 131.905C45.7931 131.88 45.712 131.634 45.7036 131.487C45.6756 131.024 45.8344 130.616 46.124 130.25C46.7728 129.429 47.5151 128.702 48.2891 128.011C48.9835 127.389 49.7264 126.824 50.469 126.263C51.3241 125.612 52.1371 124.912 52.9294 124.183C53.5456 123.613 54.2021 123.085 54.8288 122.527C55.4167 122.007 55.9878 121.468 56.576 120.944C57.2268 120.365 57.8755 119.784 58.5434 119.22C59.488 118.418 60.447 117.637 61.3937 116.837C62.0665 116.269 62.7371 115.699 63.3046 115.009C63.6256 114.616 64.05 114.304 64.4581 113.998C65.0454 113.556 65.5562 113.035 66.08 112.525C66.7179 111.902 67.3537 111.276 67.9961 110.653C68.1803 110.474 68.3814 110.315 68.5656 110.137C68.6186 110.09 68.6442 110.012 68.6846 109.951C68.616 109.926 68.5426 109.87 68.4785 109.879C68.0963 109.932 67.7196 110.005 67.3374 110.058C66.3216 110.195 65.3057 110.332 64.2881 110.463C63.8948 110.512 63.519 110.401 63.1424 110.303C62.9128 110.243 62.853 110.052 62.8062 109.87C62.7611 109.696 62.6493 109.503 62.7905 109.324C62.8872 109.2 62.9838 109.077 63.0934 108.964C63.6344 108.4 64.3217 108.089 65.0317 107.813C65.5391 107.616 66.0564 107.441 66.5602 107.231C66.7723 107.143 66.9583 107.143 67.1664 107.217C67.3127 107.269 67.4748 107.353 67.5002 107.074C67.5129 106.952 67.6128 106.881 67.7594 106.894C67.9736 106.912 68.1941 106.902 68.4105 106.922C68.5591 106.938 68.6512 106.883 68.7599 106.783C69.1617 106.401 69.658 106.27 70.1992 106.347C70.5473 106.397 70.8735 106.334 71.1793 106.203C71.5341 106.05 71.8964 105.955 72.2722 105.964C72.9627 105.979 73.6511 106.026 74.3392 106.078C74.6347 106.101 74.9228 106.439 74.941 106.744C74.9747 107.292 74.9859 107.838 75.031 108.385C75.0568 108.679 75.1394 108.97 75.1877 109.266C75.2069 109.386 75.2471 109.531 75.2019 109.63C75.0284 110.022 75.0785 110.427 75.0716 110.835C75.0695 111.004 75.0709 111.187 75.013 111.34C74.8277 111.841 74.6292 112.335 74.4087 112.82C74.3449 112.961 74.1757 113.05 74.0655 113.172C74.0165 113.228 73.9514 113.319 73.9658 113.375C74.0983 113.87 73.978 114.314 73.6673 114.689C73.1937 115.262 72.8925 115.937 72.5236 116.573C72.0984 117.305 71.6711 118.034 71.2567 118.774C70.9375 119.345 70.5431 119.853 70.0903 120.318C69.8979 120.517 69.6608 120.571 69.4325 120.493C68.934 120.318 68.906 120.364 68.8154 119.818C68.7974 119.714 68.7908 119.609 68.759 119.508C68.631 119.116 68.8237 118.81 68.9776 118.474C69.2427 117.899 69.4726 117.309 69.6979 116.717C69.9923 115.942 70.2644 115.16 70.5497 114.383C70.7024 113.963 70.8771 113.553 71.0143 113.129C71.1514 112.705 71.2551 112.272 71.3868 111.793L71.379 111.774Z" fill="#101214"/>
<path d="M59.8065 78.2066C59.2585 78.3265 58.8465 78.5873 58.4264 78.8302C57.9699 79.0937 57.5863 79.4321 57.2489 79.8401C56.9531 80.2008 56.5606 80.4562 56.1406 80.6296C55.3537 80.9522 54.6885 81.4523 54.0394 81.988C53.6335 82.322 53.2073 82.6426 52.7588 82.9123C52.4471 83.0981 52.0785 83.1867 51.7206 83.3261C51.7739 83.7196 51.5155 83.916 51.178 84.034C50.4809 84.2771 49.9036 84.6951 49.3513 85.1737C49.0502 85.4335 48.6888 85.614 48.2731 85.6258C48.2216 85.6294 48.171 85.6517 48.1213 85.6696C48.076 86.1292 47.767 86.3596 47.402 86.5463C46.8176 86.8491 46.2377 87.1645 45.6533 87.4673C45.2572 87.671 44.8558 87.8666 44.4562 88.0649C44.0574 88.2588 43.6427 88.4054 43.3514 88.7901C42.9909 89.2678 42.4509 89.5331 41.9456 89.8332C41.3675 90.1744 40.7538 90.4621 40.2148 90.8505C39.2912 91.5123 38.3072 92.0714 37.3454 92.6699C36.8845 92.9557 36.4342 93.2575 35.9636 93.5228C35.4849 93.7935 34.992 94.0427 34.4973 94.2777C33.9716 94.5296 33.4298 94.7574 32.8961 94.9915C32.5515 95.1452 32.2051 95.0526 31.8889 94.9242C31.7992 94.8877 31.7503 94.6343 31.761 94.4879C31.7929 94.0257 32.0033 93.6409 32.3381 93.3159C33.0885 92.5847 33.9197 91.9578 34.7776 91.371C35.5476 90.8432 36.3584 90.3769 37.1683 89.9151C38.1017 89.3783 38.9995 88.788 39.8805 88.1664C40.5661 87.6797 41.2863 87.2394 41.9808 86.766C42.6317 86.3257 43.2684 85.864 43.9203 85.4193C44.6414 84.9281 45.3607 84.4342 46.0969 83.9599C47.1386 83.2848 48.1919 82.6327 49.2354 81.9602C49.9769 81.4824 50.7167 81.0019 51.3694 80.3903C51.7388 80.042 52.2006 79.7866 52.6455 79.5347C53.2859 79.1711 53.8604 78.7202 54.4465 78.2808C55.1605 77.7441 55.8728 77.2047 56.5912 76.6689C56.7972 76.5153 57.0175 76.3831 57.2235 76.2295C57.2821 76.1902 57.3176 76.1161 57.3656 76.0608C57.3008 76.0269 57.235 75.9627 57.1702 75.9636C56.7838 75.9674 56.4002 75.9926 56.0138 75.9964C54.9871 76.004 53.9604 76.0117 52.9328 76.0123C52.5358 76.0116 52.177 75.8538 51.8155 75.7094C51.5952 75.6212 51.5606 75.424 51.5375 75.2384C51.5152 75.0599 51.4291 74.8547 51.5925 74.6949C51.7043 74.5851 51.8162 74.4753 51.9397 74.377C52.5498 73.8868 53.2727 73.6651 54.0134 73.4818C54.5427 73.3512 55.0791 73.2429 55.6067 73.0981C55.8287 73.0382 56.0134 73.0613 56.2106 73.1611C56.3492 73.2307 56.4993 73.335 56.5605 73.0619C56.5889 72.9423 56.6973 72.8851 56.8412 72.9163C57.0517 72.9608 57.2719 72.9794 57.4842 73.0266C57.6299 73.0604 57.7284 73.0175 57.8492 72.9327C58.2977 72.605 58.8075 72.5378 59.3351 72.6829C59.6743 72.7765 60.0065 72.7549 60.3271 72.6637C60.6992 72.5573 61.0714 72.5089 61.4435 72.5649C62.1274 72.6672 62.8051 72.8007 63.4818 72.9386C63.7723 72.9992 64.0148 73.3703 63.9935 73.6746C63.9563 74.2217 63.8969 74.7643 63.8712 75.3113C63.8588 75.6058 63.9032 75.9047 63.913 76.2037C63.9166 76.325 63.9379 76.4732 63.8802 76.566C63.6573 76.932 63.6547 77.3398 63.5953 77.7432C63.5713 77.9101 63.5491 78.0913 63.4719 78.2359C63.2233 78.7081 62.9622 79.1732 62.6807 79.6249C62.599 79.757 62.4196 79.8231 62.2944 79.9303C62.2385 79.9794 62.1621 80.0615 62.1692 80.1186C62.2368 80.6264 62.0601 81.0504 61.7031 81.3825C61.1587 81.8906 60.7725 82.5208 60.324 83.1038C59.8072 83.7751 59.2886 84.4438 58.7816 85.1241C58.3909 85.649 57.9336 86.1026 57.4238 86.5062C57.2071 86.6786 56.9647 86.7019 56.7479 86.5958C56.2754 86.3596 56.2417 86.4015 56.2221 85.85C56.2176 85.7447 56.2247 85.6394 56.206 85.5359C56.1296 85.1308 56.3605 84.8523 56.5567 84.5389C56.8941 84.0033 57.1987 83.4472 57.4988 82.8902C57.8913 82.1591 58.2624 81.4191 58.646 80.6863C58.852 80.2891 59.0784 79.9052 59.2693 79.5026C59.4602 79.1001 59.6192 78.6841 59.8118 78.2262L59.8065 78.2066Z" fill="white"/>
<path d="M121.713 91.753C121.212 92.0057 120.878 92.3609 120.532 92.7009C120.156 93.0699 119.868 93.4933 119.643 93.9725C119.447 94.3955 119.13 94.7407 118.767 95.0133C118.085 95.5219 117.566 96.172 117.071 96.8527C116.761 97.2773 116.428 97.694 116.061 98.067C115.805 98.3246 115.47 98.5023 115.159 98.7265C115.308 99.0943 115.107 99.349 114.81 99.5473C114.195 99.9565 113.74 100.505 113.325 101.106C113.098 101.433 112.793 101.698 112.393 101.813C112.344 101.829 112.301 101.864 112.257 101.893C112.328 102.35 112.086 102.65 111.779 102.922C111.289 103.361 110.806 103.81 110.315 104.249C109.982 104.545 109.642 104.835 109.305 105.127C108.967 105.414 108.602 105.659 108.416 106.104C108.186 106.657 107.729 107.048 107.314 107.465C106.84 107.939 106.317 108.371 105.892 108.882C105.162 109.753 104.349 110.539 103.566 111.359C103.191 111.75 102.831 112.155 102.441 112.529C102.045 112.911 101.63 113.275 101.209 113.626C100.763 114.001 100.295 114.357 99.8364 114.716C99.541 114.951 99.1824 114.948 98.8442 114.902C98.7482 114.889 98.6377 114.656 98.6115 114.512C98.5272 114.056 98.6351 113.631 98.8783 113.233C99.4227 112.337 100.071 111.523 100.756 110.741C101.37 110.038 102.039 109.384 102.708 108.735C103.478 107.983 104.201 107.187 104.899 106.366C105.441 105.723 106.029 105.117 106.584 104.486C107.104 103.897 107.606 103.291 108.126 102.698C108.702 102.043 109.276 101.385 109.871 100.742C110.711 99.8287 111.569 98.9347 112.411 98.0233C113.01 97.3757 113.607 96.726 114.087 95.9709C114.358 95.5416 114.741 95.1791 115.109 94.8242C115.639 94.3125 116.083 93.7326 116.541 93.161C117.099 92.4632 117.654 91.7633 118.216 91.0653C118.377 90.8652 118.558 90.6823 118.719 90.4822C118.766 90.4295 118.782 90.3489 118.814 90.2834C118.743 90.2667 118.663 90.2209 118.601 90.238C118.228 90.338 117.862 90.458 117.489 90.558C116.497 90.8213 115.504 91.0847 114.509 91.3414C114.125 91.4397 113.738 91.3763 113.352 91.3266C113.117 91.2961 113.034 91.1138 112.965 90.9398C112.899 90.7725 112.765 90.5953 112.883 90.3997C112.964 90.2655 113.045 90.1312 113.14 90.0053C113.609 89.3785 114.253 88.9836 114.925 88.6214C115.405 88.363 115.898 88.1244 116.372 87.8527C116.572 87.7393 116.757 87.7156 116.973 87.7632C117.125 87.796 117.296 87.8596 117.287 87.5798C117.285 87.4569 117.376 87.3746 117.523 87.3689C117.738 87.3595 117.956 87.3226 118.173 87.3154C118.322 87.3119 118.407 87.2458 118.503 87.1335C118.856 86.7043 119.332 86.5121 119.88 86.5212C120.231 86.5272 120.548 86.4235 120.836 86.2553C121.169 86.0595 121.518 85.9198 121.892 85.8813C122.58 85.8099 123.269 85.7702 123.959 85.7351C124.256 85.7214 124.583 86.0203 124.638 86.3203C124.739 86.8594 124.816 87.3997 124.928 87.9359C124.989 88.2241 125.107 88.5026 125.191 88.7896C125.224 88.9063 125.282 89.0444 125.249 89.1487C125.125 89.5587 125.224 89.9543 125.267 90.3598C125.285 90.5274 125.309 90.7083 125.27 90.8676C125.147 91.3869 125.01 91.9024 124.85 92.41C124.804 92.5583 124.647 92.6671 124.552 92.8021C124.51 92.8636 124.457 92.9621 124.478 93.0157C124.67 93.4905 124.604 93.9452 124.342 94.3558C123.941 94.9836 123.724 95.6902 123.435 96.3665C123.102 97.1455 122.766 97.9224 122.445 98.7076C122.197 99.3133 121.868 99.8666 121.475 100.385C121.308 100.605 121.079 100.688 120.842 100.64C120.326 100.529 120.304 100.578 120.147 100.049C120.117 99.9478 120.097 99.844 120.053 99.7485C119.878 99.3752 120.033 99.0479 120.144 98.6955C120.338 98.0927 120.494 97.4782 120.646 96.864C120.844 96.0582 121.019 95.249 121.207 94.4437C121.308 94.0076 121.431 93.5795 121.516 93.142C121.601 92.7046 121.651 92.2621 121.723 91.7707L121.713 91.753Z" fill="white"/>
</svg>
