<svg width="90" height="94" viewBox="0 0 90 94" fill="none" xmlns="http://www.w3.org/2000/svg">
<path d="M87.2777 37.0763L87.9235 35.9595C88.1314 35.5889 88.3949 35.2031 88.4694 34.8679C88.5604 34.5331 88.5563 34.2512 88.5399 34.0188C88.536 33.9524 88.5425 33.9138 88.5113 33.8357C88.4856 33.7577 88.4271 33.6679 88.3892 33.6338C88.3027 33.5599 88.2163 33.4804 88.1078 33.4004C87.8907 33.2459 87.6132 33.0789 87.2176 32.9973C86.8106 32.9321 86.3754 32.8882 85.9572 32.8283C83.8377 32.5608 81.7238 32.2934 79.6374 32.0322C77.6777 31.7797 75.7402 31.5277 73.819 31.2817C72.1018 31.0517 70.4009 30.8276 68.7277 30.6042C68.5961 30.5679 68.3852 30.6069 68.362 30.4295C68.3767 30.2807 68.4846 30.1562 68.5429 30.0306C68.9496 29.2118 69.3506 28.3984 69.7513 27.5961C70.6513 25.8004 71.5281 24.0483 72.3818 22.3399C74.1054 18.9345 75.7691 15.7211 77.3661 12.7491L77.1796 12.9213C77.3119 12.709 77.6056 11.9925 77.7908 11.87C78.0395 11.1854 78.4049 10.2495 78.8334 9.21579C79.0503 8.70175 79.2734 8.16028 79.5022 7.61338L79.8481 6.7931C80.0525 6.33953 80.2513 5.8913 80.4499 5.44864C80.6839 4.91292 80.7283 4.45547 80.7051 4.05156C80.6712 3.63082 80.5217 3.19618 80.2706 2.85298C79.7746 2.13912 78.9535 1.84268 78.3785 1.87277C77.6897 2.03819 77.1233 2.16796 76.7289 2.26326C76.5228 2.33556 76.3613 2.39241 76.2444 2.42821C76.161 2.45379 76.1219 2.46938 76.1219 2.46938C73.4707 3.39332 70.6704 4.09261 67.8708 4.76427C67.8708 4.76427 66.9449 4.91833 65.4698 5.16944C64.7268 5.29486 63.8506 5.44466 62.8746 5.61409C62.3865 5.70156 61.8705 5.79938 61.338 5.89682C61.0718 5.94553 60.7942 6.00501 60.511 6.06989C60.2444 6.12965 59.9778 6.19493 59.7056 6.26008C57.5454 6.75406 55.0988 7.21892 52.8972 8.04892C51.7993 8.45846 50.7707 8.96914 49.9061 9.55016C49.0359 10.131 48.3349 10.7935 47.834 11.4C46.4143 12.7741 45.3464 14.433 44.4652 16.1408C43.5783 17.8539 42.8776 19.6268 42.1829 21.3833C41.5045 23.1513 40.7837 24.8464 40.0178 26.5791L37.7591 31.7615C37.7591 31.7615 34.2473 40.5266 33.5109 43.3042C33.2738 44.1935 33.1175 44.9355 33.0376 45.4916C33.303 45.476 33.6732 45.4685 34.1369 45.4743C35.0127 43.9875 36.4007 40.9827 38.3841 35.9925C38.4582 35.9004 38.6318 35.5787 38.6932 35.5526C39.5382 33.2969 40.4316 31.0922 41.3633 28.905C41.8373 27.8172 42.3113 26.7293 42.7852 25.6414C43.2763 24.5319 43.7347 23.4049 44.1812 22.3108C45.0798 20.1228 45.9719 17.9734 47.1119 16.0731C47.6819 15.1257 48.311 14.2405 49.0256 13.4735C49.7404 12.701 50.5122 12.079 51.4308 11.549C51.2561 11.4674 51.4393 11.2011 51.7163 11.1637L51.7275 11.385C52.9443 10.6303 54.2642 10.1765 55.5428 9.82662C56.827 9.4769 58.0974 9.23736 59.3741 8.97033L60.3345 8.76182L61.2731 8.54178C61.8838 8.40759 62.4946 8.27337 63.1219 8.13958C64.4044 7.85613 65.7489 7.52447 67.1902 7.07363C67.179 7.07888 66.5678 7.45616 66.5565 7.46693C68.8702 7.02092 71.2786 6.53858 73.8116 5.9322C74.445 5.77094 75.0839 5.61534 75.7344 5.4324C76.0568 5.34639 76.3849 5.25496 76.7132 5.15251L77.0025 5.06573L77.0637 5.04511C77.1418 5.01387 77.2477 4.97227 77.3176 5.05134C77.3931 5.12502 77.3408 5.22869 77.3001 5.31057C75.3391 9.38972 73.2731 13.6984 71.1665 18.0833C70.0665 20.3769 68.9551 22.6868 67.8491 25.0023C67.2961 26.1601 66.7431 27.3178 66.1902 28.47L65.5152 29.8734C65.3816 30.1409 65.2644 30.4143 65.2141 30.6672C65.1637 30.9201 65.1582 31.1465 65.1697 31.3512C65.1765 31.7492 65.4388 32.3137 65.7739 32.6092C65.9304 32.7567 66.099 32.8603 66.3116 32.976C66.5299 33.0808 66.7872 33.17 67.0789 33.2103C71.6869 33.782 76.1791 34.3397 80.5283 34.883C81.5578 35.0077 82.5764 35.1321 83.5895 35.2509L84.3438 35.3413L84.6687 35.3769L84.735 35.3785L85.0216 35.4021C85.0599 35.4141 85.1435 35.383 85.1475 35.4439L85.0894 35.564L84.9616 35.8205C84.7594 36.1857 84.5517 36.5453 84.3495 36.9105C84.1128 37.3302 83.8816 37.7499 83.6341 38.1583L83.719 38.0774L83.7176 38.1326C83.8773 37.9266 84.0946 37.6226 84.3471 37.231C84.588 36.8667 84.8748 36.4317 85.1847 35.9531C85.316 35.7795 85.4758 35.568 85.6531 35.3182C85.6879 35.2527 85.7665 35.1994 85.7684 35.1221C85.7367 35.0605 85.6534 35.0806 85.5989 35.0516C85.4616 35.0206 85.3298 34.9898 85.1979 34.9644C85.0496 34.9332 84.9013 34.9019 84.764 34.8709C84.4505 34.819 84.1481 34.7674 83.8565 34.7216C83.2515 34.6238 82.7015 34.533 82.2284 34.4606C81.2878 34.3104 80.6772 34.2126 80.6772 34.2126C81.6051 34.2077 82.5486 34.2364 83.4972 34.2873C83.9602 34.3208 84.4289 34.3488 84.8975 34.3824C85.2613 34.4079 85.6416 34.4394 86.0272 34.4765L86.6109 34.5405C86.6605 34.5472 86.7103 34.5429 86.754 34.5606C86.7978 34.5782 86.8297 34.6287 86.8174 34.6782C86.7766 34.7656 86.7249 34.8472 86.6787 34.9289C86.4828 35.2612 86.2868 35.5989 86.0852 35.9365C85.855 36.3176 85.6191 36.7041 85.3833 37.0851C85.1244 37.5097 84.8655 37.9343 84.5902 38.353C83.4836 40.0165 82.393 41.7025 81.2321 43.3316C80.6651 44.1575 80.0983 44.9779 79.5372 45.7929C78.9651 46.6021 78.404 47.4116 77.865 48.2271L77.6819 48.0348C79.6 45.2585 81.078 42.6372 81.6451 41.5792C78.2856 46.6131 73.0775 54.0712 67.3999 61.0814C64.591 64.6094 61.6416 68.0068 58.927 71.0674C57.5589 72.5864 56.2641 74.0408 55.0284 75.3421C54.4158 76.0011 53.8316 76.6332 53.2757 77.2329C52.7144 77.8268 52.1815 78.3884 51.6828 78.9121C51.8603 78.8778 52.5133 78.1479 53.2548 77.4092C53.9909 76.6648 54.7997 75.8835 55.3543 75.7866C54.8441 76.3266 54.3284 76.8664 53.8183 77.4009C53.3028 77.9297 52.7818 78.4583 52.2719 78.9818C51.7566 79.5051 51.2469 80.023 50.7428 80.5355C50.2334 81.0424 49.7133 81.5324 49.2046 82.0117C48.9139 81.7062 50.1866 80.6987 50.3646 80.4213C49.8808 80.7852 48.3776 82.1847 46.0634 84.2275C44.9009 85.2432 43.5626 86.448 42.0181 87.7306C41.832 87.8863 41.646 88.042 41.4598 88.2032L41.3246 88.3103C41.2293 88.3688 41.1607 88.4666 41.0498 88.486C40.939 88.4998 40.8249 88.4252 40.7834 88.3137C40.7366 88.1965 40.8112 88.0822 40.8415 87.9725C41.2777 86.624 41.7321 85.2097 42.1986 83.7514C42.7538 82.0523 43.3379 80.3041 43.9504 78.5234C45.1753 74.9621 46.503 71.2653 47.9022 67.5757C49.296 63.8859 50.7615 60.198 52.2348 56.6428C52.9687 54.8651 53.7073 53.1207 54.4391 51.4259L54.7087 50.7916L54.8435 50.4744C54.8669 50.4198 54.89 50.3817 54.9084 50.3048L54.9696 50.0631C55.1345 49.4152 55.2994 48.7728 55.4642 48.136C55.5438 47.8174 55.6288 47.4991 55.7083 47.1861L55.8304 46.7139L55.8914 46.4779C55.8978 46.4394 55.921 46.3957 55.9162 46.368C55.9006 46.3289 55.8674 46.3281 55.8347 46.3107C55.3538 46.1055 54.8729 45.9003 54.3975 45.6953C53.0055 45.7164 51.6466 45.7328 50.3209 45.75C49.36 45.754 48.4213 45.7531 47.5156 45.753C45.7045 45.7472 44.0043 45.722 42.4536 45.684C39.3468 45.5967 36.8193 45.5292 35.0976 45.4814C34.7444 45.4727 34.4353 45.4651 34.1484 45.4581C34.0273 45.6651 33.9181 45.8392 33.8151 45.9858C34.3811 46.0992 35.1345 46.2282 36.1135 46.3848L35.4964 46.5575C38.5432 46.8367 41.3273 47.0266 44.1557 47.2065C45.5672 47.2909 46.9898 47.3755 48.4565 47.4668C49.1899 47.5069 49.9343 47.5528 50.6952 47.5991C51.0757 47.6195 51.4616 47.6455 51.8477 47.666C52.1232 47.6893 52.3987 47.7127 52.6798 47.7361C52.7517 47.7324 52.818 47.7285 52.8733 47.7244C53.3378 47.6971 53.3873 47.7093 53.6131 47.5104C53.8349 47.4717 54.2672 47.4049 54.3192 47.3123C54.4036 47.248 54.5044 47.1898 54.616 47.1428C54.6494 47.1325 54.7274 47.1068 54.7264 47.1455C54.7259 47.1676 54.7251 47.2007 54.7186 47.2392C54.6873 47.3876 54.6038 47.6397 54.4918 47.9298C54.2676 48.5155 53.9358 49.209 53.7652 49.6358C53.2326 48.8382 51.1676 53.3291 49.2753 58.4321C47.3558 63.5179 45.6484 69.1835 45.1418 70.475C44.2137 70.7174 43.2712 75.595 42.4399 77.0664C42.4484 76.945 42.5168 76.1843 42.5303 76.0852C42.2962 76.3999 41.6971 78.0869 41.0006 80.3627C40.6525 81.4979 40.2731 82.7815 39.8927 84.1037C39.4992 85.514 39.0935 86.9682 38.7061 88.3565C38.5961 88.7848 38.5428 89.1593 38.5232 89.5069C38.509 89.8601 38.6325 90.2278 38.8686 90.5099C39.3236 91.0957 40.1644 91.2598 40.7287 90.9919C41.2547 90.712 41.7346 90.2819 42.1638 89.8946C42.5476 89.5559 42.8862 89.2603 43.1682 89.0186C44.2173 88.1216 44.468 88.0338 43.2807 89.3859C47.8232 85.8729 52.8243 81.4485 57.8934 76.2799C62.9787 71.1281 68.0671 65.1754 72.9398 58.7808C77.8018 52.375 82.3832 45.476 86.5096 38.4443L87.2997 37.0769L87.2777 37.0763Z" fill="#101214"/>
</svg>
