<svg width="20" height="20" viewBox="0 0 20 20" fill="none" xmlns="http://www.w3.org/2000/svg">
<path d="M19.557 16.6214C19.5694 16.6016 19.5693 16.5658 19.5941 16.538C18.8722 16.1886 18.7897 15.3308 18.2329 14.8185L18.2122 14.7986C17.6471 14.6239 17.7997 14.0798 17.0985 14.0758C17.0985 14.0758 17.28 13.9884 17.2841 13.9884C16.1456 12.9003 13.3323 10.2276 13.3323 10.2276C13.2704 10.4699 13.7819 10.0489 14.2976 10.1204C14.2976 10.1204 14.3347 10.0291 14.3718 10.1006C15.6877 8.86547 17.1686 8.39288 18.8516 7.80512C19.6931 7.5867 19.821 5.29523 18.3814 6.24437C18.3649 6.22849 18.3277 6.21662 18.3112 6.18882C17.808 6.75274 16.9706 6.54619 16.3353 6.84007L16.3106 6.852L15.2545 7.34841C14.6812 7.57478 14.0005 7.75352 13.2869 7.92826C13.3075 7.9084 13.3282 7.88853 13.3488 7.86868C13.3488 7.86868 13.423 6.76862 13.4024 6.22455C13.4024 6.22455 14.1243 5.35087 13.8851 4.7512C14.2934 4.04828 15.7454 2.51134 14.4254 2.0745C13.9923 2.0745 13.654 1.71312 13.5055 2.38427C13.4808 2.3803 13.4478 2.38823 13.4148 2.37632C13.3364 3.0713 12.4826 3.56375 12.2474 4.22299L12.2392 4.25082C12.2969 4.81474 11.8432 5.3707 11.8391 5.3707C11.6245 5.88698 11.344 6.45088 11.047 7.03864C10.9233 6.72093 10.7872 6.43901 10.651 6.23647C10.156 5.7202 10.3664 -1.33286 8.53489 0.223899C8.62152 1.55429 9.05873 2.94026 8.70398 4.12371C8.53073 4.21505 8.79473 4.68764 9.00923 5.07286C8.99273 5.56133 8.88961 5.82344 8.86073 6.5224C7.95323 5.89096 3.9932 2.69406 4.23658 4.84651C4.66146 5.06493 4.97082 5.31511 5.19357 5.82344C5.39982 6.04186 7.21898 7.02676 7.27673 7.27298C7.15711 7.61451 9.30628 7.88851 8.43589 8.14267C8.56377 8.41272 8.73701 8.67089 8.93914 8.92108C7.99863 9.01639 6.87247 9.28244 6.28258 9.62794C6.17946 9.79871 2.42566 10.029 1.0644 10.8749C0.251765 11.3158 -0.465956 11.5342 0.379678 12.1974C0.684931 11.9591 1.83168 12.3007 1.80693 11.9869C2.08743 12.0981 3.98496 11.3991 4.19534 11.5183C4.29847 11.6771 5.79171 10.8352 5.61433 11.2324C6.64971 11.5143 7.91198 11.284 9.22374 10.9623C8.70399 11.7566 8.19252 12.8884 8.12652 13.5913C7.68101 14.4928 6.50534 16.4864 6.12996 17.7096C5.5937 18.5992 5.77935 18.6706 6.45585 19.1273L6.46824 19.1393C6.60849 19.2306 6.45174 19.1392 6.98387 19.1591C6.93025 19.1114 6.85184 18.905 6.74872 18.9407C6.81884 18.8017 7.62737 18.6031 7.28912 18.4165C7.27675 18.3887 7.80475 17.9995 7.85838 17.5785C8.32863 16.0774 9.45477 15.3188 10.288 13.6072C10.2674 13.7859 11.6699 17.1496 11.6039 18.8255C11.5008 19.6515 13.5798 20.8827 13.2787 19.04C13.3034 19.032 13.324 19.0003 13.3612 18.9963C13.027 18.2378 13.4684 17.4554 13.2952 16.685L13.2869 16.6532C12.9115 16.1846 13.3447 15.7954 12.7507 15.4142C12.7507 15.4142 12.9528 15.434 12.9569 15.438C12.6929 14.3459 12.5279 13.0115 12.2804 11.8161C13.1673 12.5905 13.9469 13.4245 14.2687 14.3419L14.3099 14.2824C14.3099 14.3102 14.3718 14.33 14.3182 14.3935C15.0648 14.5444 15.3206 14.8463 15.861 15.0488C15.861 15.0488 16.4384 16.0535 17.1108 16.0893L18.1338 17.4832C18.5752 18.202 20.9554 17.789 19.5735 16.6373L19.557 16.6214Z" fill="#101214"/>
</svg>
