<svg width="150" height="92" viewBox="0 0 150 92" fill="none" xmlns="http://www.w3.org/2000/svg">
<path d="M142.559 61.6859C145.622 34.2571 123.965 69.4399 117.707 74.878C117.805 65.2272 121.36 56.2278 122.808 46.5287C122.593 46.7495 122.57 46.0855 122.751 45.5014C124.852 24.4591 106.696 52.4543 103.954 59.1936C103.959 59.1765 104.41 57.9173 104.419 57.8889C82.3541 95.3603 103.638 44.2812 101.869 30.7366C99.1029 20.2279 90.0956 37.2369 87.808 41.057C82.8389 49.1247 64.2134 86.3993 72.351 55.9976L72.2652 56.2013L72.2585 56.1C70.9735 59.9354 66.2085 76.7281 74.436 65.2923C61.394 82.5056 76.8751 38.792 77.8589 33.7756C77.164 39.8081 74.54 46.2978 74.3514 48.4537C92.7027 -18.9291 59.3315 48.4036 47.8324 60.8796C47.5542 57.208 48.7809 53.1134 49.5321 49.5953C49.0042 50.6146 47.8615 57.4613 47.2496 58.6166C47.259 55.0993 52.4598 36.4603 50.407 45.7672C50.5313 42.6501 64.8143 9.45372 51.4806 16.131C41.6822 26.086 37.4612 40.9594 27.0517 50.3966C23.3155 44.3443 42.7634 10.1419 28.7899 13.9627C23.2053 16.8446 3.51354 49.9637 7.19425 30.2309C8.76185 21.6773 6.44362 29.498 5.86994 33.0631C5.83551 32.6624 5.81811 32.2667 5.80239 31.8653C3.59125 54.0772 26.1038 14.3478 31.6049 14.6324C31.1438 27.3723 13.4673 75.2994 38.8972 38.2288C38.8024 38.4421 38.1962 39.785 38.1133 39.9585C41.7713 37.2368 48.6186 16.5875 55.1051 17.7498C55.9551 19.3059 53.2184 31.2463 54.2831 23.9177C32.9229 93.2375 54.4941 58.94 76.502 23.2674C79.6287 37.0883 62.6392 57.7424 69.1022 71.9369C83.6135 64.9183 86.5319 42.4287 98.2103 31.2521C100.01 36.6501 95.7336 46.8214 94.5503 53.1848L94.7586 52.7576C87.2996 79.6566 90.9767 87.1229 107.318 58.1749C109.478 55.2338 122.84 31.2373 120.043 46.7229C110.613 92.7825 115.56 79.3848 139.789 53.3574C143.66 54.2756 138.619 75.0013 142.546 61.6882L142.559 61.6859Z" fill="#101214"/>
</svg>
