<svg width="99" height="103" viewBox="0 0 99 103" fill="none" xmlns="http://www.w3.org/2000/svg">
<path d="M50.2711 102.304C62.4612 91.577 36.4337 80.265 28.6116 77.182C25.6172 70.0913 24.7789 61.2974 30.9786 55.7342C34.8628 51.0692 41.9813 52.2294 47.3331 52.8399C58.0843 54.1429 56.6716 55.564 62.9094 63.5412C68.1479 69.873 89.4497 91.3222 97.2052 80.3841C99.6579 73.3435 88.3999 67.646 83.6591 64.4291C77.2932 60.7309 70.5526 57.717 63.7197 55.2751C59.4786 54.0261 56.4917 53.4182 54.8183 48.7422C48.1612 36.6019 37.4863 6.4572 57.5693 1.82831C73.0387 0.981462 86.1966 12.3564 98.1732 20.5021C98.7334 20.817 97.68 19.7948 94.475 17.1219L95.2399 17.5126C88.0509 12.2206 81.4512 6.92812 73.1907 3.61631C72.8726 3.50386 72.3383 3.32245 72.4511 3.4383C71.9355 3.71456 69.4171 2.41275 68.725 2.31672C51.7988 -5.44683 42.5929 8.29513 45.2692 25.0949C45.2187 24.9336 44.9869 23.8941 44.9461 23.7597C45.074 30.5512 50.4302 43.7871 53.9092 49.5092C54.8367 51.1694 54.9386 51.4771 53.5692 49.388C54.1341 50.4729 54.739 51.5751 55.3809 52.6833C47.9795 50.9222 39.8093 48.8418 32.5283 51.9738C23.9568 57.3943 22.6198 67.3096 25.9572 76.3026C13.0076 71.5502 -2.91271 75.4011 1.50634 92.1229C1.72661 81.9705 4.50761 75.2579 16.4277 75.9483C29.0661 77.0607 25.6261 78.3816 31.8535 87.7845C36.5137 94.1173 42.8416 103.133 50.2744 102.312L50.2711 102.304ZM70.3436 59.0936C75.4617 61.385 80.4815 64.0895 85.1281 66.9955L84.969 67.1034C80.9685 64.5776 77.1386 62.7898 75.5953 62.117C81.2088 65.0743 90.1357 69.6541 94.6591 75.7037C98.2706 80.0826 91.5474 82.918 88.0569 80.9345C79.3865 76.8937 71.7404 70.8512 65.4177 63.9068C66.3853 65.2561 69.2378 67.7655 69.9008 68.9617C66.8753 66.0839 64.0447 62.9947 61.6308 59.8575C61.8613 59.6744 63.169 61.5374 63.5175 61.8365C63.2286 61.4729 60.2992 57.695 58.4461 54.7973C62.3926 55.8484 66.4033 57.3448 70.3471 59.0976L70.3436 59.0936ZM48.1998 100.88C47.7785 100.811 47.3357 100.726 46.8826 100.56C47.0331 100.603 47.671 100.669 47.7528 100.674C39.0652 96.8699 33.5097 87.5241 29.4049 79.1024C32.8405 80.4113 40.1064 84.0928 43.699 86.7727C43.613 86.5791 44.0423 86.7696 44.3392 87.0582C44.3399 87.0469 44.1438 87.0848 44.1403 87.0808C47.2456 89.4085 50.6115 91.2868 51.4587 95.1422C51.9319 97.4444 51.2477 101.401 48.1961 100.88L48.1998 100.88Z" fill="#101214"/>
</svg>
